<svg xmlns="http://www.w3.org/2000/svg" viewBox="0 0 32 32" fill="none">
  <circle cx="16" cy="16" r="15" fill="url(#grad)" stroke="#10B981" stroke-width="1.5"/>
  <path d="M16 6C10.477 6 6 10.477 6 16s4.477 10 10 10 10-4.477 10-10S21.523 6 16 6z" fill="none" stroke="#10B981" stroke-width="1.2"/>
  <path d="M16 8a8 8 0 0 1 5.5 13.8L16 16V8z" fill="#10B981" opacity="0.3"/>
  <path d="M13 14c0-1.5 1.5-3 3-3s3 1.5 3 3c0 2-3 5-3 7-0-2-3-5-3-7z" fill="#10B981"/>
  <circle cx="16" cy="14" r="1" fill="#0F172A"/>
  <defs>
    <linearGradient id="grad" x1="0" y1="0" x2="32" y2="32">
      <stop offset="0%" stop-color="#0F172A"/>
      <stop offset="100%" stop-color="#1E293B"/>
    </linearGradient>
  </defs>
</svg>